<svg xmlns="http://www.w3.org/2000/svg" viewBox="351 211 322 462">
  <style>
    :root { color-scheme: light dark; }
    .mark { fill: #060606; }
    .cutout { fill: #ffffff; }
    @media (prefers-color-scheme: dark) {
      .mark { fill: #f7f7f4; }
      .cutout { fill: #060606; }
    }
  </style>
  <path class="mark" d="M449.377 213.343c4.071 1.804 8.413 4.217 12.632 6.125 22.3 10.088 45.822 21.562 65.455 36.386 69.508 52.478 127.753 131.106 141.115 218.585 7.41 48.517-1.113 96.289-31.426 135.377-25.944 33.452-61.95 54.037-103.605 60.053-54.219 5.342-102.944-5.93-140.447-47.976-26.103-29.265-41.098-60.929-39.889-100.754 1.702-56.065 43.132-89.179 81.563-123.113 26.845-24.519 53.129-56.833 55.888-94.528 1.628-22.245-7.066-43.138-18.409-61.754-6.501-10.67-14.524-19.244-22.877-28.401Z" />
  <path class="cutout" d="M446.783 471.565c10.705-.204 22.567-.606 33.249.032 6.266.666 9.536 5.941 13.408 9.692 6.36 6.16 14.078 15.109 21.207 20.035 10.969.025 61.914-1.266 68.512 1.686 2.308 1.033 3.775 3.983 4.46 6.273 1.693 5.662 1.402 54.435.698 62.701-.205 2.412-.517 4.852-1.69 7.009-1.862 3.428-5.011 5.36-8.655 6.424-4.794.775-13.111.458-18.3.426l-25.228-.029-52.931.087c-9.626.019-19.336.312-28.952-.035-3.012-.109-7.045-.342-9.843-1.514-2.864-1.201-5.231-5.049-6.137-7.871-1.679-5.231-1.364-81.942-.569-92.188.18-2.321.49-4.319 1.657-6.374 2.088-3.676 5.183-5.253 9.114-6.354Z" />
  <path class="cutout" d="m512.531 480.744 38.097-.041c7.198-.021 14.582-.323 21.743.155 9.984.667 12.06 5.849 13.308 14.486-2.002-.667-4.22-1.214-6.272-1.765-6.008-.839-17.339-.514-23.653-.506l-39.432-.003c-3.377-3.037-9.029-8.371-11.626-12.054l7.835-.272Z" />
</svg>
